<svg xmlns="http://www.w3.org/2000/svg" width="23.126" height="14.5" viewBox="0 0 23.126 14.5">
  <defs>
    <style>
      .cls-1 {
        fill: #8d8d8e;
        fill-rule: evenodd;
      }
    </style>
  </defs>
  <path id="be" class="cls-1" d="M386.418,4072.43v1.4H380.65v-1.4h5.768Zm-2.844,4.81a2.109,2.109,0,0,1,2.257,2.2h-4.606A2.208,2.208,0,0,1,383.574,4077.24Zm0.18,6.6a2.328,2.328,0,0,1-2.529-2.62h7.429c0.011-.17.022-0.35,0.022-0.53,0-3.05-1.783-5.59-5.012-5.59a5.178,5.178,0,0,0-5.272,5.45c0,3.21,2.021,5.41,5.272,5.41a4.584,4.584,0,0,0,4.82-3.46h-2.5A2.339,2.339,0,0,1,383.754,4083.84Zm-15.071-.56v-3.92h3.41c1.377,0,2.246.57,2.246,2.03,0,1.43-1.039,1.89-2.314,1.89h-3.342Zm0-6.07v-3.32h2.935c1.129,0,2.145.32,2.145,1.63a1.624,1.624,0,0,1-1.908,1.69h-3.172Zm-3.127-5.74v14.22h6.9c2.585,0,5.012-1.24,5.012-4.13a3.436,3.436,0,0,0-2.6-3.6,3.052,3.052,0,0,0,1.941-2.97c0-2.83-2.111-3.52-4.549-3.52h-6.706Z" transform="translate(-365.562 -4071.47)"/>
</svg>
