<svg id="Be" xmlns="http://www.w3.org/2000/svg" width="41" height="41" viewBox="0 0 41 41">
  <defs>
    <style>
      .cls-1 {
        fill: #1869ff;
      }

      .cls-2 {
        fill: #fff;
        fill-rule: evenodd;
      }
    </style>
  </defs>
  <rect id="bg" class="cls-1" width="41" height="41"/>
  <path id="be-2" data-name="be" class="cls-2" d="M166.072,341.379v1.592h-6.557v-1.592h6.557Zm-3.234,5.467a2.4,2.4,0,0,1,2.567,2.5h-5.236A2.514,2.514,0,0,1,162.838,346.846Zm0.206,7.507a2.646,2.646,0,0,1-2.875-2.977h8.444c0.013-.192.026-0.4,0.026-0.6,0-3.465-2.028-6.352-5.7-6.352a5.886,5.886,0,0,0-5.993,6.2c0,3.644,2.3,6.147,5.993,6.147a5.219,5.219,0,0,0,5.48-3.94h-2.836A2.663,2.663,0,0,1,163.044,354.353Zm-17.132-.641v-4.453h3.876c1.565,0,2.553.654,2.553,2.31,0,1.629-1.18,2.143-2.63,2.143h-3.8Zm0-6.892v-3.772h3.337c1.283,0,2.438.359,2.438,1.848,0,1.373-.9,1.924-2.169,1.924h-3.606Zm-3.555-6.531v16.169H150.2c2.939,0,5.7-1.412,5.7-4.7a3.9,3.9,0,0,0-2.952-4.094,3.464,3.464,0,0,0,2.208-3.375c0-3.221-2.4-4-5.172-4h-7.623Z" transform="translate(-135 -327)"/>
</svg>
