<svg xmlns="http://www.w3.org/2000/svg" width="18.843" height="18.84" viewBox="0 0 18.843 18.84">
  <defs>
    <style>
      .cls-1 {
        fill: #8d8d8e;
        fill-rule: evenodd;
      }
    </style>
  </defs>
  <path id="dribbble_" data-name="dribbble " class="cls-1" d="M418,4085.29a8.2,8.2,0,0,1-3.141.63,8.036,8.036,0,0,1-5.129-1.84s0.111,0.08.184,0.14c1.546-3.36,6.319-5.03,6.319-5.03s0.037-.01.049-0.01A33.879,33.879,0,0,1,418,4085.29Zm-2.27-7.45c-0.1.04-.209,0.06-0.319,0.1a12.758,12.758,0,0,0-6.54,5.31h0a8.027,8.027,0,0,1-2.061-5.37,1.815,1.815,0,0,1,.012-0.26,29.5,29.5,0,0,0,8.257-1.14C415.315,4076.93,415.535,4077.39,415.732,4077.84Zm-1.313-2.6a30.314,30.314,0,0,1-7.435.98,8.072,8.072,0,0,1,4.441-5.62A48.884,48.884,0,0,1,414.419,4075.24Zm8.392,3.91a8.061,8.061,0,0,1-3.448,5.4,35.666,35.666,0,0,0-1.57-5.75A11.877,11.877,0,0,1,422.811,4079.15Zm-9.877-9.09a0.045,0.045,0,0,0-.024.01A0.026,0.026,0,0,1,412.934,4070.06Zm7.239,1.78a8.666,8.666,0,0,1-4.2,2.91,39.24,39.24,0,0,0-3.018-4.69A8.013,8.013,0,0,1,420.173,4071.84Zm2.736,5.95a19.1,19.1,0,0,0-5.607-.26c-0.061-.13-0.11-0.28-0.172-0.41-0.171-.4-0.355-0.79-0.539-1.17a10.513,10.513,0,0,0,4.49-3.19A8.055,8.055,0,0,1,422.909,4077.79Zm1.374,0.09a9.423,9.423,0,1,0-9.422,9.42A9.426,9.426,0,0,0,424.283,4077.88Z" transform="translate(-405.438 -4068.47)"/>
</svg>
