<svg id="Dribbble" xmlns="http://www.w3.org/2000/svg" width="41" height="41" viewBox="0 0 41 41">
  <defs>
    <style>
      .cls-1 {
        fill: #e51a68;
      }

      .cls-2 {
        fill: #fff;
        fill-rule: evenodd;
      }
    </style>
  </defs>
  <rect id="bg" class="cls-1" width="41" height="41"/>
  <path id="dribbble-2" data-name="dribbble" class="cls-2" d="M211.067,356a9.163,9.163,0,0,1-9.4-1.367s0.126,0.084.209,0.154c1.758-3.822,7.183-5.718,7.183-5.718s0.042-.014.056-0.014A38.507,38.507,0,0,1,211.067,356Zm-2.58-8.465c-0.112.041-.237,0.069-0.363,0.111a14.488,14.488,0,0,0-7.433,6.039h0a9.139,9.139,0,0,1-2.343-6.109,2.061,2.061,0,0,1,.014-0.293,33.591,33.591,0,0,0,9.386-1.3C208.013,346.5,208.264,347.016,208.487,347.533ZM207,344.576a34.654,34.654,0,0,1-8.452,1.116,9.164,9.164,0,0,1,5.049-6.388A55.378,55.378,0,0,1,207,344.576Zm9.539,4.449a9.182,9.182,0,0,1-3.919,6.136,40.815,40.815,0,0,0-1.785-6.541A13.566,13.566,0,0,1,216.534,349.025ZM205.307,338.69a0.049,0.049,0,0,0-.028.014A0.028,0.028,0,0,1,205.307,338.69Zm8.229,2.023a9.89,9.89,0,0,1-4.77,3.3,44.682,44.682,0,0,0-3.431-5.328,9.287,9.287,0,0,1,2.162-.265A9.078,9.078,0,0,1,213.536,340.713Zm3.11,6.764a21.39,21.39,0,0,0-6.374-.293c-0.07-.154-0.125-0.321-0.195-0.474-0.195-.447-0.405-0.893-0.614-1.325a11.922,11.922,0,0,0,5.105-3.626A9.169,9.169,0,0,1,216.646,347.477Zm1.562,0.1A10.711,10.711,0,1,0,207.5,358.285,10.714,10.714,0,0,0,218.208,347.574Z" transform="translate(-187 -327)"/>
</svg>
