<svg id="In" xmlns="http://www.w3.org/2000/svg" width="41" height="41" viewBox="0 0 41 41">
  <defs>
    <style>
      .cls-1 {
        fill: #007bb6;
      }

      .cls-2 {
        fill: #fff;
        fill-rule: evenodd;
      }
    </style>
  </defs>
  <rect id="bg" class="cls-1" width="41" height="41"/>
  <path id="in-2" data-name="in" class="cls-2" d="M253.89,343.415h-4.421v13.277h4.421V343.415Zm0.282-4.1a2.486,2.486,0,1,0-2.519,2.291h0.027A2.289,2.289,0,0,0,254.172,339.316Zm15.621,9.766c0-4.072-2.171-5.975-5.078-5.975a4.375,4.375,0,0,0-4.006,2.237h0.027v-1.929h-4.407s0.053,1.246,0,13.277h4.407v-7.409a3.3,3.3,0,0,1,.148-1.085,2.416,2.416,0,0,1,2.264-1.608c1.594,0,2.237,1.22,2.237,3v7.1h4.408v-7.61Z" transform="translate(-239 -327)"/>
</svg>
