<svg id="Instagram" xmlns="http://www.w3.org/2000/svg" width="41" height="41" viewBox="0 0 41 41">
  <defs>
    <style>
      .cls-1 {
        fill: #13578a;
      }

      .cls-2 {
        fill: #fff;
        fill-rule: evenodd;
      }
    </style>
  </defs>
  <rect id="bg" class="cls-1" width="41" height="41"/>
  <path id="instagram-2" data-name="instagram" class="cls-2" d="M366.217,348.093a3.715,3.715,0,1,1-3.715-3.715A3.722,3.722,0,0,1,366.217,348.093Zm2,0a5.717,5.717,0,1,0-5.717,5.717A5.71,5.71,0,0,0,368.219,348.093Zm1.568-5.95a1.336,1.336,0,1,0-1.335,1.335A1.332,1.332,0,0,0,369.787,342.143Zm-7.285-3.192c1.625,0,5.108-.131,6.573.45a3.806,3.806,0,0,1,2.119,2.118c0.581,1.466.45,4.949,0.45,6.574s0.131,5.108-.45,6.574a3.8,3.8,0,0,1-2.119,2.118c-1.465.581-4.948,0.45-6.573,0.45s-5.108.131-6.574-.45a3.792,3.792,0,0,1-2.118-2.118c-0.581-1.466-.45-4.949-0.45-6.574s-0.131-5.108.45-6.574a3.8,3.8,0,0,1,2.118-2.118C357.394,338.82,360.877,338.951,362.5,338.951Zm11.144,9.142c0-1.538.015-3.062-.072-4.6a6.169,6.169,0,0,0-6.472-6.472c-1.538-.087-3.062-0.073-4.6-0.073s-3.062-.014-4.6.073a6.169,6.169,0,0,0-6.472,6.472c-0.087,1.538-.073,3.062-0.073,4.6s-0.014,3.062.073,4.6a6.169,6.169,0,0,0,6.472,6.472c1.538,0.087,3.062.073,4.6,0.073s3.062,0.014,4.6-.073a6.169,6.169,0,0,0,6.472-6.472C373.661,351.155,373.646,349.631,373.646,348.093Z" transform="translate(-342 -327)"/>
</svg>
