<svg xmlns="http://www.w3.org/2000/svg" width="19.625" height="19.63" viewBox="0 0 19.625 19.63">
  <defs>
    <style>
      .cls-1 {
        fill: #8d8d8e;
        fill-rule: evenodd;
      }
    </style>
  </defs>
  <path id="instagram_" data-name="instagram " class="cls-1" d="M517.49,4078.33a3.268,3.268,0,1,1-3.268-3.27A3.276,3.276,0,0,1,517.49,4078.33Zm1.762,0a5.03,5.03,0,1,0-5.03,5.03A5.026,5.026,0,0,0,519.252,4078.33Zm1.378-5.23a1.175,1.175,0,1,0-1.174,1.17A1.176,1.176,0,0,0,520.63,4073.1Zm-6.408-2.81c1.43,0,4.493-.11,5.783.4a2.952,2.952,0,0,1,1.123.74,3.056,3.056,0,0,1,.741,1.12c0.51,1.29.395,4.35,0.395,5.78s0.115,4.5-.395,5.79a3.352,3.352,0,0,1-1.864,1.86c-1.29.51-4.353,0.4-5.783,0.4s-4.494.11-5.783-.4a3.352,3.352,0,0,1-1.864-1.86c-0.51-1.29-.395-4.36-0.395-5.79s-0.115-4.49.395-5.78a3.056,3.056,0,0,1,.741-1.12,2.952,2.952,0,0,1,1.123-.74C509.728,4070.18,512.792,4070.29,514.222,4070.29Zm9.8,8.04c0-1.35.013-2.69-.064-4.04a5.439,5.439,0,0,0-5.693-5.7c-1.354-.07-2.694-0.06-4.047-0.06s-2.694-.01-4.047.06a5.439,5.439,0,0,0-5.693,5.7c-0.077,1.35-.064,2.69-0.064,4.04s-0.013,2.7.064,4.05a5.423,5.423,0,0,0,5.693,5.69c1.353,0.08,2.694.07,4.047,0.07s2.693,0.01,4.047-.07a5.423,5.423,0,0,0,5.693-5.69C524.039,4081.03,524.026,4079.69,524.026,4078.33Z" transform="translate(-504.406 -4068.53)"/>
</svg>
