<svg id="Twitter" xmlns="http://www.w3.org/2000/svg" width="41" height="41" viewBox="0 0 41 41">
  <defs>
    <style>
      .cls-1 {
        fill: #56acef;
      }

      .cls-2 {
        fill: #fff;
        fill-rule: evenodd;
      }
    </style>
  </defs>
  <rect id="bg" class="cls-1" width="41" height="41"/>
  <path id="twitter-2" data-name="twitter" class="cls-2" d="M425.486,341.768a9.021,9.021,0,0,1-2.594.7,4.494,4.494,0,0,0,1.981-2.483,8.867,8.867,0,0,1-2.859,1.088,4.509,4.509,0,0,0-7.8,3.082,5.057,5.057,0,0,0,.111,1.032,12.8,12.8,0,0,1-9.288-4.714,4.511,4.511,0,0,0,1.394,6.025,4.536,4.536,0,0,1-2.036-.572v0.056a4.5,4.5,0,0,0,3.612,4.421,4.741,4.741,0,0,1-1.185.154,5.659,5.659,0,0,1-.851-0.07,4.514,4.514,0,0,0,4.212,3.124,9.024,9.024,0,0,1-5.592,1.925,9.269,9.269,0,0,1-1.088-.056,12.823,12.823,0,0,0,19.734-10.8c0-.195,0-0.39-0.014-0.585A9.669,9.669,0,0,0,425.486,341.768Z" transform="translate(-393 -327)"/>
</svg>
