<svg xmlns="http://www.w3.org/2000/svg" width="19.344" height="15.68" viewBox="0 0 19.344 15.68">
  <defs>
    <style>
      .cls-1 {
        fill: #8d8d8e;
        fill-rule: evenodd;
      }
    </style>
  </defs>
  <path id="twitter" class="cls-1" d="M559.631,4072.77a7.663,7.663,0,0,1-2.282.61,3.944,3.944,0,0,0,1.742-2.18,8.107,8.107,0,0,1-2.515.96,3.962,3.962,0,0,0-6.859,2.71,4.438,4.438,0,0,0,.1.9,11.268,11.268,0,0,1-8.171-4.14,3.968,3.968,0,0,0,1.227,5.3,4.117,4.117,0,0,1-1.791-.5v0.04a3.955,3.955,0,0,0,3.178,3.89,4.012,4.012,0,0,1-1.043.14,6.1,6.1,0,0,1-.749-0.06,3.976,3.976,0,0,0,3.706,2.75,7.981,7.981,0,0,1-4.92,1.69,7.542,7.542,0,0,1-.957-0.05,11.279,11.279,0,0,0,17.36-9.5c0-.17,0-0.34-0.012-0.51A8.73,8.73,0,0,0,559.631,4072.77Z" transform="translate(-540.281 -4070.91)"/>
</svg>
